<?xml version="1.0" encoding="utf-8"?>
<!-- Generator: Adobe Illustrator 25.3.1, SVG Export Plug-In . SVG Version: 6.00 Build 0)  -->
<svg version="1.1" id="Layer_1" xmlns="http://www.w3.org/2000/svg" xmlns:xlink="http://www.w3.org/1999/xlink" x="0px" y="0px"
	 viewBox="0 0 31.09 55.71" style="enable-background:new 0 0 31.09 55.71;" xml:space="preserve">
<style type="text/css">
	.st0{fill:#6D6161;}
	.st1{fill:#E6E6E6;}
</style>
<g>
	<path class="charging__fill" d="M8.34,54.21c-0.57,0-1.11-0.27-1.45-0.73c-0.34-0.46-0.44-1.03-0.27-1.58l5.57-18.23H4.14
		c-0.99,0-1.89-0.55-2.34-1.42c-0.45-0.88-0.38-1.93,0.19-2.73L21.3,2.26c0.34-0.47,0.88-0.76,1.45-0.76c0.57,0,1.11,0.27,1.45,0.73
		s0.43,1.03,0.27,1.58l-5.57,18.23h8.06c0.99,0,1.89,0.55,2.34,1.42s0.38,1.93-0.19,2.73L9.79,53.45
		C9.46,53.92,8.91,54.21,8.34,54.21L8.34,54.21z"/>
	<path class="charging__stroke" d="M22.75,3c0.17,0,0.34,0.16,0.28,0.37l-6.17,20.17h10.09c0.92,0,1.46,1.04,0.93,1.79L8.57,52.58
		c-0.06,0.09-0.15,0.12-0.23,0.12c-0.17,0-0.34-0.16-0.28-0.37l6.17-20.17H4.14c-0.92,0-1.46-1.04-0.93-1.79L22.52,3.12
		C22.58,3.04,22.67,3,22.75,3 M22.75,0L22.75,0c-1.06,0-2.06,0.52-2.68,1.39L0.76,28.64c-0.9,1.27-1.01,2.91-0.3,4.29
		c0.71,1.38,2.12,2.24,3.67,2.24h6.04L5.19,51.46c-0.3,0.99-0.12,2.08,0.5,2.91c0.62,0.84,1.61,1.34,2.65,1.34
		c1.06,0,2.06-0.52,2.68-1.39l19.31-27.25c0.9-1.27,1.01-2.91,0.3-4.29c-0.71-1.38-2.12-2.24-3.67-2.24h-6.04L25.9,4.25
		c0.3-0.99,0.12-2.08-0.5-2.91C24.78,0.5,23.79,0,22.75,0L22.75,0z"/>
</g>
</svg>
